<?xml version="1.0" encoding="UTF-8" standalone="no"?>
<svg
   height="48"
   viewBox="0 0 48 48"
   width="48"
   version="1.1"
   id="svg6"
   sodipodi:docname="link_icon.svg"
   inkscape:version="1.1 (ce6663b3b7, 2021-05-25)"
   xmlns:inkscape="http://www.inkscape.org/namespaces/inkscape"
   xmlns:sodipodi="http://sodipodi.sourceforge.net/DTD/sodipodi-0.dtd"
   xmlns="http://www.w3.org/2000/svg"
   xmlns:svg="http://www.w3.org/2000/svg">
  <defs
     id="defs10" />
  <sodipodi:namedview
     id="namedview8"
     pagecolor="#505050"
     bordercolor="#eeeeee"
     borderopacity="1"
     inkscape:pageshadow="0"
     inkscape:pageopacity="0"
     inkscape:pagecheckerboard="0"
     showgrid="false"
     inkscape:zoom="10.3125"
     inkscape:cx="23.951515"
     inkscape:cy="24"
     inkscape:window-width="1366"
     inkscape:window-height="704"
     inkscape:window-x="0"
     inkscape:window-y="27"
     inkscape:window-maximized="1"
     inkscape:current-layer="svg6" />
  <path
     d="M0 0h48v48H0z"
     fill="none"
     id="path2" />
  <path
     d="M 7.7882935,40.285802 C 4.558261,37.063573 4.7040972,31.666203 8.1135416,28.248505 L 16.088847,20.253889 12.49992,16.673633 4.5246163,24.668248 C -0.97834536,30.184533 -1.2133622,38.882452 4.0000215,44.083244 9.2134085,49.28404 17.910733,49.02799 23.413694,43.511705 L 31.389,35.517091 27.800075,31.936834 19.824769,39.931448 c -3.409445,3.417698 -8.806444,3.576586 -12.0364755,0.354354 z M 17.851889,33.975669 33.802501,17.98644 30.024683,14.217748 14.074072,30.206978 Z m 6.610989,-29.2939565 -7.975304,7.9946135 3.588925,3.580257 7.975304,-7.9946138 c 3.409444,-3.4176974 8.806444,-3.5765861 12.036475,-0.3543564 3.230034,3.2222322 3.084198,8.6196012 -0.325247,12.0372992 l -7.975303,7.994614 3.588925,3.580256 7.975304,-7.994614 C 48.854917,18.008886 49.089935,9.3109648 43.876549,4.1101709 38.663165,-1.0906216 29.965838,-0.83457137 24.462878,4.6817125 Z"
     id="path4"
     style="stroke-width:1.37225" />
</svg>
