<?xml version="1.0" encoding="UTF-8" standalone="no"?>
<!-- Generator: Adobe Illustrator 19.0.0, SVG Export Plug-In . SVG Version: 6.00 Build 0)  -->

<svg
   version="1.1"
   id="Layer_1"
   x="0px"
   y="0px"
   viewBox="0 0 23.999999 23.999999"
   xml:space="preserve"
   sodipodi:docname="logout-svgrepo-com.svg"
   width="24"
   height="24"
   inkscape:version="1.1 (ce6663b3b7, 2021-05-25)"
   xmlns:inkscape="http://www.inkscape.org/namespaces/inkscape"
   xmlns:sodipodi="http://sodipodi.sourceforge.net/DTD/sodipodi-0.dtd"
   xmlns="http://www.w3.org/2000/svg"
   xmlns:svg="http://www.w3.org/2000/svg"><defs
   id="defs38" /><sodipodi:namedview
   id="namedview36"
   pagecolor="#505050"
   bordercolor="#eeeeee"
   borderopacity="1"
   inkscape:pageshadow="0"
   inkscape:pageopacity="0"
   inkscape:pagecheckerboard="0"
   showgrid="false"
   width="24px"
   inkscape:zoom="20.625"
   inkscape:cx="12"
   inkscape:cy="12"
   inkscape:window-width="1366"
   inkscape:window-height="704"
   inkscape:window-x="0"
   inkscape:window-y="27"
   inkscape:window-maximized="1"
   inkscape:current-layer="Layer_1" />
<g
   id="XMLID_6_"
   transform="matrix(0.07437477,0,0,0.08814782,0.08647986,-2.0792153)">
	<path
   id="XMLID_7_"
   d="m 51.213,175.001 h 173.785 c 8.284,0 15,-6.716 15,-15 0,-8.284 -6.716,-15 -15,-15 H 51.213 l 19.394,-19.394 c 5.858,-5.858 5.858,-15.355 0,-21.213 -5.857,-5.858 -15.355,-5.858 -21.213,0 L 4.396,149.393 c -0.351,0.351 -0.683,0.719 -0.997,1.103 -0.137,0.167 -0.256,0.344 -0.385,0.515 -0.165,0.22 -0.335,0.435 -0.488,0.664 -0.14,0.209 -0.261,0.426 -0.389,0.64 -0.123,0.206 -0.252,0.407 -0.365,0.619 -0.118,0.22 -0.217,0.446 -0.323,0.67 -0.104,0.219 -0.213,0.435 -0.306,0.659 -0.09,0.219 -0.164,0.442 -0.243,0.664 -0.087,0.24 -0.179,0.477 -0.253,0.722 -0.067,0.222 -0.116,0.447 -0.172,0.672 -0.063,0.249 -0.133,0.497 -0.183,0.751 -0.051,0.259 -0.082,0.521 -0.119,0.782 -0.032,0.223 -0.075,0.443 -0.097,0.669 -0.048,0.484 -0.073,0.971 -0.074,1.457 0,0.007 -0.001,0.015 -0.001,0.022 0,0.007 0.001,0.015 0.001,0.022 0.001,0.487 0.026,0.973 0.074,1.458 0.022,0.223 0.064,0.44 0.095,0.661 0.038,0.264 0.069,0.528 0.121,0.79 0.05,0.252 0.119,0.496 0.182,0.743 0.057,0.227 0.107,0.456 0.175,0.681 0.073,0.241 0.164,0.474 0.248,0.71 0.081,0.226 0.155,0.453 0.247,0.675 0.091,0.22 0.198,0.431 0.3,0.646 0.108,0.229 0.21,0.46 0.33,0.685 0.11,0.205 0.235,0.4 0.354,0.599 0.131,0.221 0.256,0.444 0.4,0.659 0.146,0.219 0.309,0.424 0.466,0.635 0.136,0.181 0.262,0.368 0.407,0.544 0.299,0.364 0.616,0.713 0.947,1.048 0.016,0.016 0.029,0.034 0.045,0.05 l 45,45.001 c 2.93,2.929 6.768,4.394 10.607,4.394 3.838,-10e-4 7.678,-1.465 10.606,-4.393 5.858,-5.858 5.858,-15.355 0.001,-21.213 z" />
	<path
   id="XMLID_8_"
   d="m 305.002,25 h -190 c -8.284,0 -15,6.716 -15,15 v 60 c 0,8.284 6.716,15 15,15 8.284,0 15,-6.716 15,-15 V 55 h 160 v 210.001 h -160 V 220 c 0,-8.284 -6.716,-15 -15,-15 -8.284,0 -15,6.716 -15,15 v 60.001 c 0,8.284 6.716,15 15,15 h 190 c 8.284,0 15,-6.716 15,-15 V 40 c 0,-8.284 -6.716,-15 -15,-15 z" />
</g>
<g
   id="g5">
</g>
<g
   id="g7">
</g>
<g
   id="g9">
</g>
<g
   id="g11">
</g>
<g
   id="g13">
</g>
<g
   id="g15">
</g>
<g
   id="g17">
</g>
<g
   id="g19">
</g>
<g
   id="g21">
</g>
<g
   id="g23">
</g>
<g
   id="g25">
</g>
<g
   id="g27">
</g>
<g
   id="g29">
</g>
<g
   id="g31">
</g>
<g
   id="g33">
</g>
</svg>
