<?xml version="1.0" encoding="UTF-8" standalone="no"?>
<svg
   height="67px"
   id="Layer_1"
   style="enable-background:new 0 0 67 67;"
   version="1.1"
   viewBox="0 0 67 67"
   width="67px"
   xml:space="preserve"
   sodipodi:docname="twitter_icon.svg"
   inkscape:version="1.1 (ce6663b3b7, 2021-05-25)"
   xmlns:inkscape="http://www.inkscape.org/namespaces/inkscape"
   xmlns:sodipodi="http://sodipodi.sourceforge.net/DTD/sodipodi-0.dtd"
   xmlns="http://www.w3.org/2000/svg"
   xmlns:svg="http://www.w3.org/2000/svg"><defs
     id="defs7" /><sodipodi:namedview
     id="namedview5"
     pagecolor="#505050"
     bordercolor="#eeeeee"
     borderopacity="1"
     inkscape:pageshadow="0"
     inkscape:pageopacity="0"
     inkscape:pagecheckerboard="0"
     showgrid="false"
     inkscape:snap-global="true"
     inkscape:zoom="7.3880597"
     inkscape:cx="33.5"
     inkscape:cy="33.5"
     inkscape:window-width="1366"
     inkscape:window-height="704"
     inkscape:window-x="0"
     inkscape:window-y="27"
     inkscape:window-maximized="1"
     inkscape:current-layer="Layer_1" /><path
     d="m 38.232257,20.531922 c -2.918483,1.061976 -4.762731,3.801049 -4.553235,6.798649 l 0.07021,1.156696 -1.167839,-0.141522 C 28.332372,27.803057 24.619359,25.962149 21.466862,22.868714 l -1.541146,-1.53446 -0.396709,1.133295 c -0.840219,2.52623 -0.303102,5.193985 1.447541,6.988089 0.933826,0.99177 0.723214,1.133293 -0.887022,0.542688 -0.560519,-0.188326 -1.050833,-0.329848 -1.097635,-0.259644 -0.162695,0.166038 0.396709,2.31339 0.840221,3.163639 0.60732,1.18121 1.844248,2.336792 3.199297,3.022118 l 1.144438,0.542688 -1.353935,0.0234 c -1.307133,0 -1.353935,0.02341 -1.213528,0.520401 0.466914,1.53446 2.311162,3.163639 4.366024,3.872367 l 1.44754,0.49477 -1.26033,0.75553 c -1.86765,1.087604 -4.06292,1.700498 -6.258189,1.746186 -1.051946,0.02341 -1.915568,0.118121 -1.915568,0.189439 0,0.235128 2.849393,1.556747 4.506431,2.077149 4.973345,1.53446 10.881628,0.872535 15.317854,-1.747302 3.152497,-1.865421 6.303878,-5.571748 7.775934,-9.161069 0.794531,-1.911111 1.587949,-5.405711 1.587949,-7.080581 0,-1.086491 0.07021,-1.228013 1.377336,-2.52623 0.77113,-0.755529 1.494344,-1.581263 1.634752,-1.817505 0.234013,-0.449083 0.209498,-0.449083 -0.980628,-0.04792 -1.984657,0.708727 -2.265473,0.614007 -1.283731,-0.447968 0.723213,-0.755529 1.587949,-2.125065 1.587949,-2.526232 0,-0.07021 -0.349907,0.0468 -0.747729,0.259644 -0.42011,0.236242 -1.353936,0.590605 -2.054862,0.802332 l -1.26033,0.40228 -1.144437,-0.780044 c -0.630721,-0.424575 -1.516629,-0.89706 -1.984657,-1.038582 -1.191239,-0.329847 -3.013202,-0.283045 -4.087435,0.09472 z m -4.643496,46.487336 c -18.46255,0 -33.4304977,-14.967948 -33.4304977,-33.430497 0,-18.463664 14.9679477,-33.4304977 33.4304977,-33.4304977 18.462549,0 33.430497,14.9668337 33.430497,33.4304977 0,18.462549 -14.967948,33.430497 -33.430497,33.430497 z"
     style="clip-rule:evenodd;fill:#ffffff;fill-rule:evenodd;stroke-width:1.11435"
     id="path2" /></svg>
